<?xml version="1.0" encoding="UTF-8"?>
<svg xmlns="http://www.w3.org/2000/svg" xmlns:xlink="http://www.w3.org/1999/xlink" width="20pt" height="19pt" viewBox="0 0 20 19" version="1.1">
<defs>
<linearGradient id="linear0" gradientUnits="userSpaceOnUse" x1="413.72794" y1="338.21359" x2="185.85365" y2="347.96967" gradientTransform="matrix(0.0451626,0,0,0.0497516,-0.730142,-6.231367)">
<stop offset="0" style="stop-color:rgb(58.039216%,32.54902%,25.490196%);stop-opacity:1;"/>
<stop offset="1" style="stop-color:rgb(58.039216%,32.54902%,25.490196%);stop-opacity:0;"/>
</linearGradient>
</defs>
<g id="surface1">
<path style=" stroke:none;fill-rule:nonzero;fill:rgb(65.098039%,40.392157%,33.72549%);fill-opacity:1;" d="M 8.027344 0 C 7.453125 0.617188 6.675781 1.089844 6.390625 1.964844 C 6.226562 2.554688 6.125 3.1875 6.25 3.804688 C 6.320312 4.191406 6.433594 4.566406 6.566406 4.929688 C 5.464844 5.449219 4.707031 6.492188 4.554688 7.703125 C 3.332031 8.71875 2.574219 10.257812 2.46875 11.929688 C 0.921875 12.648438 0.00390625 13.800781 0 15.027344 C 0 17.144531 2.6875 18.863281 6 18.863281 C 6.96875 18.863281 7.917969 18.714844 8.777344 18.425781 C 9.9375 18.804688 11.277344 19.003906 12.644531 19.007812 C 16.707031 19.007812 20 17.289062 20 15.167969 C 20 14.304688 19.441406 13.464844 18.414062 12.789062 C 18.4375 12.613281 18.449219 12.433594 18.453125 12.253906 C 18.449219 9.878906 16.546875 7.949219 14.179688 7.921875 C 14.085938 6.5 13.433594 5.292969 12.515625 4.839844 C 12.519531 4.773438 12.523438 4.707031 12.519531 4.644531 C 12.527344 4.019531 12.140625 3.472656 11.636719 3.226562 C 10.996094 2.871094 10.265625 2.816406 9.578125 2.636719 C 8.894531 2.390625 8.566406 1.613281 8.355469 0.917969 C 8.242188 0.640625 8.179688 0.144531 8.027344 0 Z M 8.027344 0 "/>
<path style=" stroke:none;fill-rule:nonzero;fill:url(#linear0);" d="M 8.027344 0 C 7.453125 0.617188 6.675781 1.089844 6.390625 1.964844 C 6.226562 2.554688 6.125 3.1875 6.25 3.804688 C 6.320312 4.191406 6.433594 4.566406 6.566406 4.929688 C 5.464844 5.449219 4.707031 6.492188 4.554688 7.703125 C 3.332031 8.71875 2.574219 10.257812 2.46875 11.929688 C 0.921875 12.648438 0.00390625 13.800781 0 15.027344 C 0 17.144531 2.6875 18.863281 6 18.863281 C 6.96875 18.863281 7.917969 18.714844 8.777344 18.425781 C 9.9375 18.804688 11.277344 19.003906 12.644531 19.007812 C 16.707031 19.007812 20 17.289062 20 15.167969 C 20 14.304688 19.441406 13.464844 18.414062 12.789062 C 18.4375 12.613281 18.449219 12.433594 18.453125 12.253906 C 18.449219 9.878906 16.546875 7.949219 14.179688 7.921875 C 14.085938 6.5 13.433594 5.292969 12.515625 4.839844 C 12.519531 4.773438 12.523438 4.707031 12.519531 4.644531 C 12.527344 4.019531 12.140625 3.472656 11.636719 3.226562 C 10.996094 2.871094 10.265625 2.816406 9.578125 2.636719 C 8.894531 2.390625 8.566406 1.613281 8.355469 0.917969 C 8.242188 0.640625 8.179688 0.144531 8.027344 0 Z M 8.027344 0 "/>
<path style=" stroke:none;fill-rule:nonzero;fill:rgb(100%,100%,100%);fill-opacity:1;" d="M 9.359375 9.816406 C 9.359375 8.53125 8.585938 7.488281 7.628906 7.488281 C 6.675781 7.488281 5.898438 8.53125 5.898438 9.816406 C 5.898438 11.101562 6.675781 12.144531 7.628906 12.144531 C 8.585938 12.144531 9.359375 11.101562 9.359375 9.816406 Z M 9.359375 9.816406 "/>
<path style=" stroke:none;fill-rule:nonzero;fill:rgb(100%,100%,100%);fill-opacity:1;" d="M 13.300781 9.710938 C 13.300781 8.425781 12.523438 7.382812 11.570312 7.382812 C 10.613281 7.382812 9.839844 8.425781 9.839844 9.710938 C 9.839844 10.996094 10.613281 12.039062 11.570312 12.039062 C 12.523438 12.039062 13.300781 10.996094 13.300781 9.710938 Z M 13.300781 9.710938 "/>
<path style=" stroke:none;fill-rule:nonzero;fill:rgb(0%,0%,0%);fill-opacity:1;" d="M 8.578125 9.6875 C 8.578125 9.132812 8.257812 8.683594 7.859375 8.683594 C 7.460938 8.683594 7.136719 9.132812 7.136719 9.6875 C 7.136719 10.242188 7.460938 10.691406 7.859375 10.691406 C 8.257812 10.691406 8.578125 10.242188 8.578125 9.6875 Z M 8.578125 9.6875 "/>
<path style=" stroke:none;fill-rule:nonzero;fill:rgb(0%,0%,0%);fill-opacity:1;" d="M 11.929688 9.660156 C 11.929688 9.101562 11.609375 8.652344 11.210938 8.652344 C 10.8125 8.652344 10.488281 9.101562 10.488281 9.660156 C 10.488281 10.214844 10.8125 10.664062 11.210938 10.664062 C 11.609375 10.664062 11.929688 10.214844 11.929688 9.660156 Z M 11.929688 9.660156 "/>
<path style=" stroke:none;fill-rule:nonzero;fill:rgb(0%,0%,0%);fill-opacity:1;" d="M 15.222656 13.320312 C 15.222656 14.46875 14.175781 15.527344 12.484375 16.085938 C 10.796875 16.644531 8.730469 16.617188 7.082031 16.011719 C 5.4375 15.410156 4.472656 14.324219 4.558594 13.179688 L 9.886719 13.320312 Z M 15.222656 13.320312 "/>
<path style=" stroke:none;fill-rule:nonzero;fill:rgb(84.313725%,30.196078%,51.372549%);fill-opacity:1;" d="M 9.976562 14.144531 C 9.28125 14.140625 8.597656 14.222656 8.007812 14.375 C 7.003906 14.632812 6.359375 15.082031 6.277344 15.574219 L 6.265625 15.574219 C 6.261719 15.601562 6.261719 15.625 6.265625 15.648438 C 6.261719 15.683594 6.265625 15.71875 6.265625 15.75 L 6.296875 15.75 C 6.445312 16.039062 7.0625 16.296875 7.988281 16.449219 C 9.109375 16.636719 10.519531 16.644531 11.671875 16.472656 C 12.75 16.3125 13.449219 16.011719 13.527344 15.683594 L 13.625 15.683594 C 13.625 15.125 12.902344 14.609375 11.734375 14.339844 C 11.199219 14.210938 10.59375 14.144531 9.976562 14.144531 Z M 9.976562 14.144531 "/>
</g>
</svg>
